<svg width="251" height="238" viewBox="0 0 251 238" fill="none" xmlns="http://www.w3.org/2000/svg">
<g clip-path="url(#clip0_19_2150)">
<path d="M143.144 4.5289C146.663 8.76816 147.491 13.1371 147.066 18.4156C146.367 22.1297 144.858 24.9829 141.734 27.3552C140.106 28.1856 138.552 28.6069 136.771 29.0621C136.828 29.475 136.884 29.8879 136.943 30.3132C137.156 31.8635 137.369 33.4138 137.582 34.9641C137.673 35.6316 137.765 36.2991 137.857 36.9666C138.153 39.1145 138.444 41.2629 138.732 43.4117C138.789 43.8235 138.846 44.2353 138.904 44.6596C139.128 46.3756 139.243 48.0481 139.233 49.7782C139.232 50.1479 139.23 50.5176 139.228 50.8985C139.226 51.1774 139.224 51.4564 139.222 51.7437C139.811 51.7357 140.4 51.7276 141.008 51.7193C148.29 51.6524 155.518 52.0094 162.784 52.4381C164.507 52.5384 166.231 52.6378 167.955 52.7352C169.015 52.7953 170.075 52.857 171.135 52.9207C182.509 54.0801 182.509 54.0801 192.906 51.2827C193.609 50.2258 194.117 49.1923 194.618 48.0406C196.958 45.8312 199.654 44.943 202.891 44.5979C206.403 44.7607 209.397 46.0075 211.777 48.4456C214.191 51.3635 214.597 54.1361 214.228 57.7613C213.581 60.8543 211.786 62.6675 209.325 64.7047C210.115 67.2341 211.312 69.4927 212.571 71.8343C212.909 72.4686 212.909 72.4686 213.254 73.1158C213.975 74.4693 214.699 75.8217 215.423 77.1738C218.185 82.3391 220.936 87.506 223.565 92.7331C226.932 99.4186 230.386 106.063 233.869 112.695C234.9 114.66 235.927 116.625 236.947 118.595C237.95 120.532 238.961 122.464 239.979 124.394C240.361 125.123 240.741 125.853 241.117 126.584C241.639 127.599 242.173 128.608 242.709 129.616C242.859 129.915 243.01 130.214 243.165 130.521C244.266 132.552 245.358 133.279 247.564 134.138C248.477 134.934 248.477 134.934 249.188 135.758C249.428 136.03 249.669 136.303 249.917 136.583C251.574 138.825 251.236 141.718 250.995 144.322C249.389 148.459 244.833 151.201 240.817 153.187C238.966 153.849 237.243 153.981 235.308 153.58C233.864 152.547 233.852 151.827 233.592 150.137C233.833 148.517 234.066 147.855 235.354 146.781C237.116 145.635 239.024 144.714 240.923 143.787C242.458 142.94 242.458 142.94 242.661 140.619C216.453 140.619 190.246 140.619 163.243 140.619C163.888 143.052 164.864 143.474 167.012 144.817C183.356 153.807 203.818 155.079 221.974 151.028C224.179 150.711 225.812 150.815 227.648 152.046C228.703 153.464 228.739 154.193 228.445 155.894C227.375 157.588 226.691 158.139 224.703 158.807C223.971 158.957 223.237 159.094 222.5 159.221C222.097 159.295 221.693 159.369 221.276 159.445C201.175 162.865 178.574 161.2 160.97 150.703C158.052 148.786 156.051 147.094 154.909 143.859C154.546 140.694 154.862 138.139 156.87 135.527C158.018 134.388 159.197 133.428 160.78 132.873C162.241 132.01 162.738 130.753 163.433 129.321C163.673 128.847 163.673 128.847 163.918 128.363C164.273 127.659 164.626 126.954 164.977 126.247C165.981 124.228 167.006 122.219 168.029 120.208C168.259 119.756 168.489 119.303 168.725 118.837C170.812 114.742 172.955 110.674 175.111 106.611C175.287 106.279 175.463 105.946 175.645 105.604C177.252 102.574 178.863 99.5446 180.474 96.5159C181.493 94.6014 182.51 92.6865 183.527 90.7712C183.69 90.4645 183.853 90.1578 184.02 89.8418C186.377 85.3986 188.688 80.9368 190.932 76.4415C192.381 73.5456 193.895 70.6877 195.544 67.8882C196.073 66.9783 196.073 66.9783 196.579 65.6305C195.689 63.4433 194.132 61.4958 192.167 60.0758C190.469 59.7582 188.955 60.0481 187.265 60.3362C182.654 60.9118 178.217 61.058 173.569 60.8858C172.616 60.851 172.616 60.851 171.643 60.8155C166.586 60.6092 161.536 60.3046 156.486 59.9834C151.203 59.6479 145.987 59.5296 140.693 59.6129C141.178 64.1955 141.663 68.7781 142.163 73.4996C144.347 74.187 144.347 74.187 146.575 74.8883C153.229 77.5625 159.381 82.9011 162.263 89.2379C162.428 90.1637 162.428 90.1637 162.447 91.0894C162.461 91.395 162.475 91.7005 162.489 92.0152C162.153 93.3904 161.451 93.9113 160.302 94.7926C158.954 95.0028 158.954 95.0028 157.43 94.9734C156.61 94.9644 156.61 94.9644 155.773 94.9553C154.921 94.932 154.921 94.932 154.052 94.9083C153.476 94.8999 152.9 94.8916 152.307 94.883C150.886 94.8612 149.466 94.8307 148.046 94.7926C148.054 95.0743 148.061 95.356 148.069 95.6463C148.145 98.5899 148.197 101.533 148.235 104.478C148.252 105.575 148.275 106.672 148.305 107.769C148.347 109.351 148.366 110.931 148.381 112.513C148.399 113 148.417 113.487 148.435 113.989C148.436 116.575 148.197 118.08 146.371 120.07C145.797 120.605 145.214 121.131 144.615 121.64C143.245 122.933 143.406 123.825 143.328 125.633C143.342 127.54 143.366 128.667 144.494 130.265C145.473 131.162 146.485 131.954 147.556 132.75C148.161 133.893 148.111 134.65 148.115 135.93C148.118 136.406 148.121 136.882 148.123 137.373C148.124 137.898 148.125 138.422 148.125 138.963C148.128 139.514 148.13 140.065 148.133 140.633C148.138 142.147 148.142 143.661 148.144 145.175C148.146 146.121 148.148 147.067 148.15 148.013C148.157 150.974 148.161 153.935 148.163 156.896C148.165 160.313 148.174 163.729 148.188 167.146C148.199 169.787 148.204 172.428 148.204 175.07C148.205 176.647 148.208 178.224 148.217 179.801C148.225 181.562 148.224 183.323 148.221 185.084C148.225 185.605 148.23 186.126 148.235 186.662C148.22 189.242 148.169 191.185 146.575 193.388C144.128 195.474 142.511 195.954 139.254 195.918C134.972 195.305 131.434 191.836 128.232 189.284C126.828 188.189 125.37 187.205 123.856 186.251C122.279 184.829 121.594 183.522 121.539 181.435C121.58 180.402 121.624 179.369 121.67 178.336C121.946 173.606 121.946 173.606 120.431 169.216C118.699 167.508 116.579 166.411 114.388 165.304C112.361 164.219 110.55 162.872 108.705 161.536C108.355 161.297 108.005 161.058 107.644 160.812C107.314 160.58 106.984 160.348 106.644 160.109C106.211 159.809 106.211 159.809 105.769 159.504C103.399 157.22 102.699 155.102 102.691 151.956C102.687 151.625 102.684 151.294 102.68 150.953C102.672 149.87 102.677 148.787 102.684 147.703C102.683 146.945 102.681 146.188 102.678 145.43C102.676 143.846 102.68 142.263 102.689 140.679C102.7 138.652 102.694 136.625 102.682 134.598C102.675 133.035 102.677 131.472 102.682 129.909C102.683 129.162 102.682 128.414 102.677 127.667C102.672 126.622 102.68 125.578 102.691 124.533C102.692 123.939 102.694 123.346 102.696 122.734C102.986 120.918 103.541 120.147 104.906 118.863C105.886 118.572 105.886 118.572 106.866 118.603C107.19 118.602 107.514 118.601 107.847 118.601C109.294 118.988 109.857 119.605 110.788 120.714C111.024 122.185 111.024 122.185 111.011 123.942C111.011 124.262 111.012 124.583 111.012 124.914C111.01 125.971 110.995 127.027 110.98 128.085C110.976 128.819 110.973 129.553 110.971 130.287C110.964 132.217 110.945 134.147 110.923 136.077C110.903 138.047 110.894 140.017 110.884 141.988C110.863 145.852 110.83 149.716 110.788 153.58C111.091 153.719 111.393 153.858 111.705 154.001C112.859 154.558 113.827 155.215 114.861 155.952C115.265 156.239 115.669 156.526 116.086 156.821C116.511 157.126 116.937 157.431 117.376 157.746C117.811 158.056 118.247 158.367 118.696 158.687C119.572 159.313 120.448 159.94 121.324 160.567C122.414 161.348 123.506 162.127 124.599 162.904C125.174 163.316 125.748 163.727 126.323 164.139C126.82 164.496 127.317 164.852 127.83 165.219C128.927 166.078 128.927 166.078 129.417 167.004C129.459 168.046 129.47 169.089 129.465 170.132C129.464 170.592 129.464 170.592 129.463 171.062C129.46 172.043 129.454 173.024 129.448 174.005C129.445 174.67 129.443 175.334 129.441 175.999C129.436 177.63 129.427 179.26 129.417 180.89C129.697 181.014 129.977 181.138 130.265 181.265C131.427 181.84 132.44 182.494 133.5 183.223C133.892 183.491 134.284 183.76 134.687 184.036C135.294 184.455 135.294 184.455 135.913 184.883C136.325 185.165 136.737 185.448 137.161 185.74C138.176 186.436 139.19 187.134 140.202 187.834C140.23 181.198 140.235 174.563 140.214 167.928C140.205 164.846 140.203 161.766 140.217 158.684C140.231 155.71 140.226 152.736 140.208 149.761C140.204 148.628 140.207 147.494 140.218 146.36C140.231 144.769 140.219 143.18 140.202 141.59C140.212 141.123 140.221 140.655 140.231 140.174C140.174 137.537 139.762 136.226 137.751 134.338C137.397 134.051 137.043 133.765 136.679 133.469C135.539 132.546 135.325 132.085 135.19 130.673C135.127 129.108 135.087 127.545 135.055 125.98C135.015 125.172 135.015 125.172 134.975 124.347C134.928 121.57 134.988 119.756 136.97 117.608C137.544 117.087 138.129 116.577 138.732 116.086C139.892 114.99 139.84 114.759 139.868 113.27C139.878 112.881 139.888 112.492 139.898 112.091C139.904 111.67 139.909 111.25 139.915 110.817C139.925 110.386 139.934 109.956 139.944 109.513C139.973 108.136 139.996 106.758 140.019 105.381C140.037 104.449 140.056 103.516 140.076 102.584C140.123 100.295 140.164 98.007 140.202 95.7184C139.309 96.095 138.422 96.4832 137.537 96.8756C137.042 97.0904 136.547 97.3052 136.037 97.5265C133.443 98.8908 130.46 100.597 129.505 103.366C129.36 104.721 129.351 106.022 129.393 107.384C129.39 107.891 129.388 108.398 129.386 108.92C129.383 110.588 129.411 112.254 129.438 113.921C129.441 115.083 129.44 116.245 129.438 117.407C129.437 120.148 129.455 122.89 129.482 125.631C129.534 130.834 129.551 136.036 129.555 141.239C129.561 142.947 129.58 144.655 129.601 146.363C129.606 147.409 129.611 148.454 129.615 149.5C129.624 149.975 129.634 150.45 129.643 150.939C129.641 152.995 129.634 154.168 128.486 155.956C127.382 156.882 126.951 157.136 125.495 157.109C125.172 157.115 124.848 157.121 124.515 157.127C122.904 156.622 122.453 155.872 121.573 154.505C121.29 152.849 121.327 151.21 121.353 149.535C121.352 149.034 121.352 148.533 121.352 148.017C121.352 146.931 121.357 145.845 121.365 144.759C121.378 143.038 121.378 141.319 121.375 139.599C121.368 135.326 121.378 131.054 121.398 126.782C121.415 123.172 121.421 119.563 121.41 115.953C121.409 114.814 121.414 113.674 121.425 112.535C121.44 110.94 121.438 109.347 121.431 107.752C121.44 107.282 121.449 106.813 121.459 106.329C121.425 103.554 120.982 102.037 118.897 100.038C117.873 99.2018 116.841 98.5154 115.66 97.8882C115.26 97.6704 114.86 97.4526 114.448 97.2282C113.25 96.6493 112.04 96.1824 110.788 95.7184C110.799 96.1433 110.809 96.5683 110.819 97.0062C110.853 98.5867 110.877 100.167 110.896 101.747C110.906 102.431 110.919 103.114 110.936 103.797C110.96 104.781 110.971 105.764 110.98 106.748C110.99 107.34 111 107.931 111.011 108.541C110.788 110.068 110.788 110.068 109.871 111.176C108.642 112.052 107.913 112.312 106.376 112.382C104.996 112.049 104.197 111.824 103.37 110.707C102.776 109.169 102.835 107.818 102.849 106.184C102.85 105.858 102.852 105.532 102.853 105.196C102.859 104.158 102.871 103.121 102.883 102.083C102.888 101.378 102.893 100.673 102.897 99.9675C102.907 98.2425 102.924 96.5175 102.945 94.7926C102.584 94.8023 102.223 94.812 101.851 94.822C100.214 94.8605 98.5766 94.8845 96.9392 94.9083C96.3711 94.9238 95.803 94.9393 95.2176 94.9553C94.671 94.9613 94.1244 94.9672 93.5612 94.9734C93.058 94.9831 92.5548 94.9928 92.0364 95.0028C90.3254 94.7359 89.7657 94.2311 88.7278 92.941C88.1938 90.0165 89.0101 88.2809 90.7079 85.8349C95.346 79.9201 100.616 76.2087 107.847 73.4996C108.17 73.4996 108.494 73.4996 108.827 73.4996C108.989 70.9028 109.151 68.306 109.318 65.6305C101.6 68.7254 94.0926 72.0991 86.6192 75.685C78.4285 79.614 70.3715 83.1919 61.6197 85.8806C59.7556 86.4863 58.6968 86.8413 57.7511 88.4857C57.6102 88.7667 57.4693 89.0478 57.3241 89.3373C56.5959 90.6411 55.5553 91.488 54.4114 92.4781C55.0553 94.4488 55.8588 96.2085 56.8817 98.0292C57.3083 98.8052 57.3083 98.8052 57.7434 99.5969C58.3402 100.674 58.9415 101.75 59.5473 102.823C62.2944 107.854 62.2944 107.854 61.7649 110.994C60.5186 112.378 59.7268 112.772 57.843 113.106C55.9156 112.764 55.0641 111.965 53.9211 110.531C52.8683 108.772 51.968 106.955 51.0717 105.121C50.8255 104.631 50.5794 104.142 50.3258 103.637C48.5286 100.024 48.5286 100.024 48.5286 98.9586C48.205 98.9586 47.8815 98.9586 47.5481 98.9586C47.4362 99.322 47.3244 99.6854 47.2091 100.06C46.3716 102.248 45.2679 104.266 44.1471 106.336C42.2097 109.951 40.3176 113.582 38.4788 117.243C35.86 122.45 33.1342 127.601 30.3899 132.75C34.9197 132.75 39.4494 132.75 44.1165 132.75C44.039 128.872 44.039 128.872 43.9398 124.995C43.9349 124.511 43.93 124.027 43.925 123.528C43.9096 122.786 43.9096 122.786 43.8938 122.029C44.1836 120.318 44.6082 119.895 46.0774 118.863C47.5078 118.678 48.7538 118.605 50.1841 118.616C50.5972 118.612 51.0103 118.608 51.436 118.604C52.8007 118.593 54.165 118.596 55.5297 118.601C56.4785 118.598 57.4272 118.595 58.3759 118.592C60.3639 118.587 62.3518 118.589 64.3398 118.596C66.8886 118.604 69.4368 118.593 71.9856 118.577C73.9446 118.567 75.9034 118.567 77.8624 118.571C78.8022 118.572 79.742 118.568 80.6817 118.562C81.9952 118.554 83.3077 118.56 84.6211 118.571C85.0098 118.565 85.3985 118.56 85.7989 118.554C87.5823 118.583 88.5488 118.726 89.9516 119.796C90.8995 121.572 90.9443 123.108 90.9019 125.05C90.9012 125.627 90.9012 125.627 90.9005 126.214C90.8985 127.046 90.8922 127.878 90.882 128.71C90.8667 130.027 90.8648 131.344 90.8667 132.662C90.8699 136.406 90.8501 140.151 90.8183 143.895C90.7998 146.188 90.798 148.481 90.8061 150.774C90.8057 151.646 90.7988 152.518 90.7853 153.391C90.7665 154.612 90.7687 155.832 90.7755 157.053C90.7647 157.412 90.7538 157.77 90.7427 158.14C90.7703 159.68 90.8292 160.613 91.9366 161.793C92.8413 162.531 92.8413 162.531 93.7814 163.147C95.2174 164.214 95.5927 165.375 96.0813 167.004C96.415 169.795 96.3174 172.02 94.6106 174.41C86.0165 184 69.6118 187.341 56.988 188.41C39.1607 189.718 18.7883 187.621 4.07044 177.158C1.72465 175.253 0.200829 173.787 -0.16741 170.755C-0.260153 168.125 -0.238998 165.945 1.46607 163.763C1.74007 163.593 2.01407 163.423 2.29637 163.247C3.88142 162.258 4.76748 161.516 5.2063 159.731C5.30963 158.148 5.30852 156.593 5.27113 155.008C5.2725 154.431 5.27388 153.853 5.2753 153.259C5.27745 151.73 5.266 150.201 5.24629 148.672C5.2197 146.516 5.20868 144.359 5.20994 142.203C5.20987 141.056 5.19991 139.909 5.17906 138.762C5.17765 138.243 5.17623 137.724 5.17478 137.189C5.16579 136.505 5.16579 136.505 5.15662 135.807C5.46379 134.206 5.94925 133.687 7.34888 132.75C8.83155 132.497 8.83155 132.497 10.5431 132.468C11.4625 132.445 11.4625 132.445 12.4006 132.422C13.0389 132.416 13.6771 132.409 14.3347 132.402C15.3035 132.382 15.3035 132.382 16.2918 132.361C17.8864 132.328 19.4806 132.304 21.0754 132.287C23.7862 127.253 26.4884 122.216 29.18 117.174C30.43 114.832 31.6828 112.493 32.9423 110.156C34.157 107.902 35.3641 105.645 36.5659 103.385C37.0264 102.522 37.4897 101.661 37.9558 100.801C38.6067 99.5982 39.2477 98.3915 39.8865 97.1834C40.0826 96.8265 40.2786 96.4696 40.4806 96.1018C41.497 94.271 41.497 94.271 41.3303 92.2914C40.6426 91.504 39.9542 90.7343 39.2141 89.9901C36.9921 87.5696 36.5263 85.2567 36.6117 82.1047C36.9638 79.3141 38.1372 77.0899 40.3171 75.1776C42.8797 73.3203 45.6702 72.2684 48.9499 72.4147C52.5278 72.9572 55.1278 74.2506 57.3719 76.9315C57.843 77.6656 57.843 77.6656 57.843 78.5914C62.4072 77.2642 66.8659 75.8168 71.2153 73.9462C71.6335 73.7674 72.0517 73.5886 72.4825 73.4044C76.9809 71.4602 81.3828 69.3408 85.7888 67.2181C106.419 57.2984 106.419 57.2984 110.788 57.2984C110.866 56.5581 110.866 56.5581 110.945 55.8029C112.844 37.7351 112.844 37.7351 114.22 29.0621C113.766 28.9309 113.766 28.9309 113.303 28.797C112.906 28.678 112.509 28.559 112.1 28.4365C111.707 28.3203 111.313 28.2042 110.908 28.0846C109.317 27.4899 108.441 26.5879 107.357 25.359C107.013 25.0248 106.669 24.6907 106.315 24.3464C103.554 20.4364 103.31 15.6318 104.172 11.0998C105.28 7.16516 107.098 4.79118 110.788 2.67734C119.681 -1.10136 135.171 -1.22151 143.144 4.5289ZM112.964 10.7779C111.614 12.9948 111.516 14.9922 111.769 17.4898C112.528 19.4256 113.276 20.6465 115.2 21.6559C121.35 23.5415 129.907 23.9274 135.961 21.4461C137.848 20.4067 138.539 19.4255 139.222 17.4898C139.499 14.8495 139.351 12.8127 137.751 10.5465C135.472 8.31423 131.974 8.17762 128.87 8.09279C127.765 8.08609 126.661 8.08439 125.557 8.08737C125.007 8.07991 124.458 8.07245 123.893 8.06477C120.032 8.06264 115.862 8.10803 112.964 10.7779ZM122.064 29.9879C121.902 30.9426 121.74 31.8973 121.573 32.8809C121.482 33.418 121.391 33.955 121.298 34.5083C121.039 36.0595 121.039 36.0595 121.083 37.857C123.995 37.857 126.907 37.857 129.907 37.857C129.837 36.9023 129.766 35.9476 129.693 34.964C129.653 34.4269 129.613 33.8899 129.572 33.3366C129.449 31.7661 129.449 31.7661 128.927 29.9879C126.662 29.9879 124.397 29.9879 122.064 29.9879ZM120.103 45.2633C119.941 46.3612 119.779 47.4591 119.613 48.5903C119.561 48.9317 119.51 49.2731 119.457 49.6249C119.22 51.27 119.068 52.8611 119.122 54.5211C121.998 54.2004 124.847 53.7936 127.701 53.3349C128.105 53.2708 128.508 53.2066 128.923 53.1406C129.905 52.9842 130.887 52.827 131.868 52.6695C131.545 50.2255 131.221 47.7814 130.888 45.2633C127.329 45.2633 123.77 45.2633 120.103 45.2633ZM200.593 53.1903C199.366 54.4342 199.366 54.4342 199.521 55.9676C200.111 57.6271 200.111 57.6271 201.482 58.6871C202.931 58.9958 202.931 58.9958 204.423 58.6871C205.693 57.7568 205.693 57.7568 206.384 56.3726C206.384 54.7069 206.239 53.9327 205.005 52.7274C203.147 51.8251 202.222 52.0279 200.593 53.1903ZM126.664 60.5821C126.164 60.6865 125.665 60.7909 125.151 60.8985C124.638 61.0089 124.124 61.1193 123.596 61.233C123.071 61.3434 122.547 61.4538 122.006 61.5675C120.717 61.8391 119.429 62.1135 118.142 62.3902C117.975 63.3251 117.813 64.2607 117.652 65.1965C117.561 65.7174 117.47 66.2383 117.376 66.775C117.16 68.4174 117.126 69.995 117.161 71.648C117.44 71.6316 117.718 71.6151 118.005 71.5982C123.33 71.2938 128.518 71.0432 133.829 71.648C134.015 65.4707 134.015 65.4707 132.359 60.0758C130.369 59.9851 128.602 60.1708 126.664 60.5821ZM202.462 71.1851C202.345 71.4204 202.228 71.6556 202.107 71.898C199.11 77.9002 196.02 83.855 192.872 89.7876C192.686 90.1384 192.5 90.4893 192.308 90.8508C190.76 93.7679 189.209 96.6838 187.658 99.5996C181.816 110.586 176.103 121.608 170.597 132.75C191.952 132.75 213.306 132.75 235.308 132.75C231.299 124.757 231.299 124.757 227.238 116.787C227.075 116.469 226.911 116.15 226.743 115.822C222.708 107.967 218.562 100.164 214.412 92.3624C213.127 89.9476 211.843 87.5326 210.561 85.1167C210.061 84.1747 209.559 83.2332 209.057 82.2918C207.107 78.6223 205.238 74.9251 203.443 71.1851C203.119 71.1851 202.796 71.1851 202.462 71.1851ZM100.003 86.9234C100.003 87.0762 100.003 87.2289 100.003 87.3863C100.583 87.409 101.163 87.4317 101.761 87.455C109.863 87.8024 116.237 88.6874 122.826 93.4943C123.858 94.2132 124.821 94.7594 125.986 95.2555C126.2 95.0538 126.415 94.8521 126.637 94.6443C132.404 89.5307 139.103 87.9456 146.79 87.5888C147.195 87.5688 147.601 87.5489 148.018 87.5283C149.008 87.4796 149.998 87.4328 150.988 87.3863C146.89 82.1679 139.492 79.5616 132.849 78.5914C121.402 77.0922 108.355 78.7211 100.003 86.9234ZM45.6791 80.9637C44.4521 82.2077 44.4521 82.2077 44.6067 83.7411C45.1763 85.4251 45.1763 85.4251 46.5676 86.4605C48.4074 86.4295 49.5525 86.3536 50.9797 85.2165C51.6607 83.7296 51.497 82.8992 50.9797 81.3687C50.141 80.4564 50.141 80.4564 49.0188 79.9801C47.0306 79.794 47.0306 79.794 45.6791 80.9637ZM51.9602 126.269C51.9602 128.408 51.9602 130.546 51.9602 132.75C62.1522 132.75 72.3442 132.75 82.845 132.75C82.845 130.611 82.845 128.472 82.845 126.269C72.653 126.269 62.461 126.269 51.9602 126.269ZM13.2317 140.156C13.2317 146.877 13.2317 153.598 13.2317 160.523C23.4237 160.523 33.6156 160.523 44.1165 160.523C44.1165 158.384 44.1165 156.246 44.1165 154.043C43.5056 154.033 42.8947 154.024 42.2653 154.015C39.9948 153.98 37.7245 153.938 35.4542 153.896C34.4723 153.878 33.4904 153.862 32.5085 153.847C31.0955 153.826 29.6828 153.799 28.27 153.771C27.8323 153.766 27.3946 153.761 26.9436 153.755C24.8078 153.707 22.9858 153.667 21.0754 152.654C20.3279 151.242 20.4697 150.042 20.5852 148.488C21.3485 147.499 21.7897 147.148 23.0703 146.915C23.6532 146.907 23.6532 146.907 24.248 146.899C24.9103 146.885 24.9103 146.885 25.586 146.871C26.061 146.868 26.5359 146.865 27.0253 146.862C27.7566 146.85 27.7566 146.85 28.5028 146.837C30.0612 146.812 31.6195 146.796 33.1781 146.781C34.2342 146.766 35.2903 146.75 36.3464 146.733C38.9364 146.694 41.5263 146.663 44.1165 146.636C44.1165 144.498 44.1165 142.359 44.1165 140.156C33.9245 140.156 23.7325 140.156 13.2317 140.156ZM51.9602 140.156C51.9602 142.294 51.9602 144.433 51.9602 146.636C62.1522 146.636 72.3442 146.636 82.845 146.636C82.845 144.498 82.845 142.359 82.845 140.156C72.653 140.156 62.461 140.156 51.9602 140.156ZM51.9602 154.043C51.9602 156.181 51.9602 158.32 51.9602 160.523C62.1522 160.523 72.3442 160.523 82.845 160.523C82.845 158.384 82.845 156.246 82.845 154.043C72.653 154.043 62.461 154.043 51.9602 154.043ZM8.32935 167.929C8.16757 168.693 8.00579 169.457 7.83911 170.244C22.1369 180.858 41.8851 182.445 59.335 180.601C69.4582 179.387 80.68 176.585 88.2375 169.781C88.0758 169.17 87.914 168.559 87.7473 167.929C61.5394 167.929 35.3315 167.929 8.32935 167.929Z" fill="#12325A"/>
<path d="M126.967 199.982C127.26 200.189 127.553 200.396 127.855 200.609C128.73 201.232 129.596 201.864 130.46 202.499C130.949 202.85 131.437 203.202 131.94 203.564C136.474 206.892 136.474 206.892 137.136 209.032C137.178 209.368 137.219 209.704 137.262 210.05C137.336 210.548 137.336 210.548 137.412 211.057C137.248 213.22 136.585 214.775 134.967 216.289C133.869 217.15 132.744 217.959 131.594 218.758C131.212 219.033 130.831 219.308 130.438 219.591C123.329 224.663 123.329 224.663 119.761 224.448C117.882 224.107 116.801 223.507 115.263 222.403C113.734 220.139 113.575 218.302 113.597 215.706C113.595 215.151 113.595 215.151 113.593 214.585C113.592 213.807 113.594 213.029 113.601 212.251C113.608 211.066 113.601 209.881 113.591 208.695C113.592 207.937 113.594 207.178 113.597 206.419C113.594 206.067 113.591 205.716 113.588 205.353C113.619 203.144 113.995 201.645 115.263 199.721C119.071 196.311 123.11 197.144 126.967 199.982ZM121.636 206.202C121.636 209.41 121.636 212.618 121.636 215.923C122.313 215.512 122.991 215.102 123.689 214.679C124.07 214.448 124.451 214.217 124.844 213.979C126.203 213.038 127.334 211.978 128.499 210.831C127.633 210.144 126.765 209.459 125.895 208.777C125.411 208.395 124.928 208.014 124.43 207.621C123.165 206.599 123.165 206.599 121.636 206.202Z" fill="#12325A"/>
<path d="M124.205 226.254C125.458 226.83 126.459 227.598 127.514 228.452C127.918 228.76 127.918 228.76 128.331 229.074C132.45 232.245 132.45 232.245 132.784 234.094C132.471 235.904 132.062 236.634 130.578 237.826C128.059 238.153 126.68 238.012 124.574 236.643C123.882 236.14 123.197 235.627 122.519 235.106C122.167 234.849 121.815 234.592 121.452 234.327C118.901 232.439 118.901 232.439 118.322 231.345C118.149 229.587 118.063 228.501 119.057 226.977C120.746 225.98 122.285 225.954 124.205 226.254Z" fill="#12325A"/>
</g>
<defs>
<clipPath id="clip0_19_2150">
<rect width="251" height="237.974" fill="white"/>
</clipPath>
</defs>
</svg>
